<svg xmlns="http://www.w3.org/2000/svg" width="128" height="128" viewBox="0 0 128 128">
  <rect width="128" height="128" rx="24" fill="#2b3a55"/>
  <path d="M30 46 L30 20 L52 36 Z" fill="#f0a868"/>
  <path d="M98 46 L98 20 L76 36 Z" fill="#f0a868"/>
  <path d="M34 42 L34 26 L48 36 Z" fill="#e0705f"/>
  <path d="M94 42 L94 26 L80 36 Z" fill="#e0705f"/>
  <ellipse cx="64" cy="70" rx="38" ry="34" fill="#f0a868"/>
  <ellipse cx="50" cy="64" rx="6" ry="8" fill="#2b3a55"/>
  <ellipse cx="78" cy="64" rx="6" ry="8" fill="#2b3a55"/>
  <circle cx="52" cy="61" r="2" fill="#ffffff"/>
  <circle cx="80" cy="61" r="2" fill="#ffffff"/>
  <path d="M64 78 l-6 -5 h12 Z" fill="#e0705f"/>
  <path d="M64 78 v6 M64 84 q-7 6 -13 1 M64 84 q7 6 13 1" stroke="#2b3a55" stroke-width="3" fill="none" stroke-linecap="round"/>
  <path d="M22 68 h20 M22 78 h20 M106 68 h-20 M106 78 h-20" stroke="#2b3a55" stroke-width="3" stroke-linecap="round" opacity="0.7"/>
</svg>
